<svg width="176" height="40" viewBox="0 0 176 40" fill="none" xmlns="http://www.w3.org/2000/svg">
<path d="M69 12.248V14.96H62.016V19.256H67.368V21.92H62.016V29H58.656V12.248H69ZM70.5186 22.304C70.5186 20.96 70.7826 19.768 71.3106 18.728C71.8546 17.688 72.5826 16.888 73.4946 16.328C74.4226 15.768 75.4546 15.488 76.5906 15.488C77.5826 15.488 78.4466 15.688 79.1826 16.088C79.9346 16.488 80.5346 16.992 80.9826 17.6V15.704H84.3666V29H80.9826V27.056C80.5506 27.68 79.9506 28.2 79.1826 28.616C78.4306 29.016 77.5586 29.216 76.5666 29.216C75.4466 29.216 74.4226 28.928 73.4946 28.352C72.5826 27.776 71.8546 26.968 71.3106 25.928C70.7826 24.872 70.5186 23.664 70.5186 22.304ZM80.9826 22.352C80.9826 21.536 80.8226 20.84 80.5026 20.264C80.1826 19.672 79.7506 19.224 79.2066 18.92C78.6626 18.6 78.0786 18.44 77.4546 18.44C76.8306 18.44 76.2546 18.592 75.7266 18.896C75.1986 19.2 74.7666 19.648 74.4306 20.24C74.1106 20.816 73.9506 21.504 73.9506 22.304C73.9506 23.104 74.1106 23.808 74.4306 24.416C74.7666 25.008 75.1986 25.464 75.7266 25.784C76.2706 26.104 76.8466 26.264 77.4546 26.264C78.0786 26.264 78.6626 26.112 79.2066 25.808C79.7506 25.488 80.1826 25.04 80.5026 24.464C80.8226 23.872 80.9826 23.168 80.9826 22.352ZM91.5602 18.464V24.896C91.5602 25.344 91.6642 25.672 91.8722 25.88C92.0962 26.072 92.4642 26.168 92.9762 26.168H94.5362V29H92.4242C89.5922 29 88.1762 27.624 88.1762 24.872V18.464H86.5922V15.704H88.1762V12.416H91.5602V15.704H94.5362V18.464H91.5602ZM109.313 22.064C109.313 22.544 109.281 22.976 109.217 23.36H99.4969C99.5769 24.32 99.9129 25.072 100.505 25.616C101.097 26.16 101.825 26.432 102.689 26.432C103.937 26.432 104.825 25.896 105.353 24.824H108.977C108.593 26.104 107.857 27.16 106.769 27.992C105.681 28.808 104.345 29.216 102.761 29.216C101.481 29.216 100.329 28.936 99.3049 28.376C98.2969 27.8 97.5049 26.992 96.9289 25.952C96.3689 24.912 96.0889 23.712 96.0889 22.352C96.0889 20.976 96.3689 19.768 96.9289 18.728C97.4889 17.688 98.2729 16.888 99.2809 16.328C100.289 15.768 101.449 15.488 102.761 15.488C104.025 15.488 105.153 15.76 106.145 16.304C107.153 16.848 107.929 17.624 108.473 18.632C109.033 19.624 109.313 20.768 109.313 22.064ZM105.833 21.104C105.817 20.24 105.505 19.552 104.897 19.04C104.289 18.512 103.545 18.248 102.665 18.248C101.833 18.248 101.129 18.504 100.553 19.016C99.9929 19.512 99.6489 20.208 99.5209 21.104H105.833ZM110.901 22.352C110.901 20.976 111.181 19.776 111.741 18.752C112.301 17.712 113.077 16.912 114.069 16.352C115.061 15.776 116.197 15.488 117.477 15.488C119.125 15.488 120.485 15.904 121.557 16.736C122.645 17.552 123.373 18.704 123.741 20.192H120.117C119.925 19.616 119.597 19.168 119.133 18.848C118.685 18.512 118.125 18.344 117.453 18.344C116.493 18.344 115.733 18.696 115.173 19.4C114.613 20.088 114.333 21.072 114.333 22.352C114.333 23.616 114.613 24.6 115.173 25.304C115.733 25.992 116.493 26.336 117.453 26.336C118.813 26.336 119.701 25.728 120.117 24.512H123.741C123.373 25.952 122.645 27.096 121.557 27.944C120.469 28.792 119.109 29.216 117.477 29.216C116.197 29.216 115.061 28.936 114.069 28.376C113.077 27.8 112.301 27 111.741 25.976C111.181 24.936 110.901 23.728 110.901 22.352ZM125.339 22.304C125.339 20.96 125.603 19.768 126.131 18.728C126.675 17.688 127.403 16.888 128.315 16.328C129.243 15.768 130.275 15.488 131.411 15.488C132.403 15.488 133.267 15.688 134.003 16.088C134.755 16.488 135.355 16.992 135.803 17.6V15.704H139.187V29H135.803V27.056C135.371 27.68 134.771 28.2 134.003 28.616C133.251 29.016 132.379 29.216 131.387 29.216C130.267 29.216 129.243 28.928 128.315 28.352C127.403 27.776 126.675 26.968 126.131 25.928C125.603 24.872 125.339 23.664 125.339 22.304ZM135.803 22.352C135.803 21.536 135.643 20.84 135.323 20.264C135.003 19.672 134.571 19.224 134.027 18.92C133.483 18.6 132.899 18.44 132.275 18.44C131.651 18.44 131.075 18.592 130.547 18.896C130.019 19.2 129.587 19.648 129.251 20.24C128.931 20.816 128.771 21.504 128.771 22.304C128.771 23.104 128.931 23.808 129.251 24.416C129.587 25.008 130.019 25.464 130.547 25.784C131.091 26.104 131.667 26.264 132.275 26.264C132.899 26.264 133.483 26.112 134.027 25.808C134.571 25.488 135.003 25.04 135.323 24.464C135.643 23.872 135.803 23.168 135.803 22.352ZM147.557 29.216C146.469 29.216 145.493 29.024 144.629 28.64C143.765 28.24 143.077 27.704 142.565 27.032C142.069 26.36 141.797 25.616 141.749 24.8H145.133C145.197 25.312 145.445 25.736 145.877 26.072C146.325 26.408 146.877 26.576 147.533 26.576C148.173 26.576 148.669 26.448 149.021 26.192C149.389 25.936 149.573 25.608 149.573 25.208C149.573 24.776 149.349 24.456 148.901 24.248C148.469 24.024 147.773 23.784 146.812 23.528C145.821 23.288 145.005 23.04 144.365 22.784C143.741 22.528 143.197 22.136 142.733 21.608C142.285 21.08 142.061 20.368 142.061 19.472C142.061 18.736 142.269 18.064 142.685 17.456C143.117 16.848 143.725 16.368 144.509 16.016C145.309 15.664 146.245 15.488 147.317 15.488C148.901 15.488 150.165 15.888 151.109 16.688C152.053 17.472 152.573 18.536 152.669 19.88H149.453C149.405 19.352 149.181 18.936 148.781 18.632C148.397 18.312 147.877 18.152 147.221 18.152C146.613 18.152 146.141 18.264 145.805 18.488C145.485 18.712 145.325 19.024 145.325 19.424C145.325 19.872 145.549 20.216 145.997 20.456C146.445 20.68 147.141 20.912 148.085 21.152C149.045 21.392 149.837 21.64 150.461 21.896C151.085 22.152 151.621 22.552 152.069 23.096C152.533 23.624 152.773 24.328 152.789 25.208C152.789 25.976 152.573 26.664 152.141 27.272C151.725 27.88 151.117 28.36 150.317 28.712C149.533 29.048 148.613 29.216 147.557 29.216ZM159.459 18.464V24.896C159.459 25.344 159.563 25.672 159.771 25.88C159.995 26.072 160.363 26.168 160.875 26.168H162.435V29H160.323C157.491 29 156.075 27.624 156.075 24.872V18.464H154.491V15.704H156.075V12.416H159.459V15.704H162.435V18.464H159.459ZM168.211 17.768C168.643 17.064 169.203 16.512 169.891 16.112C170.595 15.712 171.395 15.512 172.291 15.512V19.04H171.403C170.347 19.04 169.547 19.288 169.003 19.784C168.475 20.28 168.211 21.144 168.211 22.376V29H164.851V15.704H168.211V17.768Z" fill="#494C4B"/>
<path d="M38.125 19.8876C38.1494 23.0542 37.3398 26.1714 35.7774 28.9259C35.575 29.2837 35.3607 29.6337 35.1344 29.9759C35.0225 30.1498 34.8772 30.2998 34.7069 30.4171C34.5367 30.5345 34.3448 30.6169 34.1424 30.6595C33.94 30.7021 33.7312 30.7041 33.5281 30.6655C33.3249 30.6268 33.1315 30.5482 32.9589 30.4341C32.7864 30.3201 32.6382 30.173 32.523 30.0013C32.4077 29.8296 32.3277 29.6367 32.2875 29.4338C32.2474 29.231 32.2479 29.0222 32.2891 28.8195C32.3303 28.6168 32.4113 28.4244 32.5274 28.2532C34.0185 25.9897 34.8685 23.3644 34.987 20.6564C35.1054 17.9484 34.4879 15.2589 33.2001 12.8738C31.9123 10.4887 30.0022 8.49708 27.673 7.11069C25.3438 5.7243 22.6825 4.99493 19.9719 5.0001C14.7618 5.01026 10.1422 7.74541 7.45706 11.8321C5.85189 14.2703 4.99772 17.1259 5.0005 20.045C5.00327 22.9641 5.86288 25.8182 7.47269 28.2532C7.70092 28.5991 7.78239 29.0216 7.69917 29.4275C7.61595 29.8335 7.37486 30.1898 7.02894 30.4181C6.68302 30.6463 6.2606 30.7278 5.85461 30.6445C5.44863 30.5613 5.09233 30.3202 4.8641 29.9743C3.0791 27.2655 2.05381 24.1272 1.89521 20.887C1.73662 17.6468 2.45053 14.4235 3.96245 11.5533C5.47437 8.68306 7.72889 6.27121 10.4907 4.56941C13.2526 2.86761 16.4206 1.93822 19.6641 1.87822C19.7782 1.87588 19.8914 1.8751 20.0047 1.8751C24.7949 1.86523 29.3933 3.75637 32.7905 7.13341C36.1878 10.5105 38.1063 15.0975 38.125 19.8876Z" fill="#494D4B"/>
<path d="M9.06588 22.7944L11.8978 36.8819C12.0678 37.7276 12.8911 38.2753 13.7368 38.1053C14.5825 37.9353 15.1303 37.112 14.9603 36.2663L12.1284 22.1788C11.9584 21.3331 11.135 20.7853 10.2893 20.9553C9.44363 21.1253 8.89588 21.9487 9.06588 22.7944Z" fill="#04D361"/>
<path d="M11.8438 36.5641L11.1258 36.7086C10.059 36.9234 8.95038 36.7225 8.02677 36.147C7.10316 35.5715 6.43432 34.6648 6.15706 33.6125C6.13597 33.5313 6.11644 33.45 6.10003 33.3672L5.07112 28.2555C4.84815 27.1459 5.07485 25.9931 5.70141 25.0506C6.32796 24.108 7.3031 23.4528 8.41253 23.2289L9.1305 23.0844L10.3899 29.3406L11.8438 36.5641Z" fill="#494D4B"/>
<path d="M11.8438 36.5641L11.1259 36.7086C10.059 36.9234 8.95043 36.7225 8.02682 36.147C7.1032 35.5715 6.43437 34.6648 6.1571 33.6125C7.67448 32.2981 9.08951 30.87 10.3899 29.3406L11.8438 36.5641Z" fill="#494D4B"/>
<path d="M36.1477 27.0875L35.7774 28.9258C35.575 29.2836 35.3607 29.6336 35.1344 29.9758C35.0225 30.1497 34.8772 30.2997 34.7069 30.4171C34.5366 30.5344 34.3448 30.6168 34.1424 30.6594C33.94 30.702 33.7312 30.7041 33.5281 30.6654C33.3249 30.6267 33.1315 30.5481 32.9589 30.4341C32.7864 30.3201 32.6382 30.1729 32.5229 30.0012C32.4077 29.8295 32.3277 29.6366 32.2875 29.4338C32.2474 29.2309 32.2479 29.0221 32.2891 28.8194C32.3303 28.6168 32.4112 28.4243 32.5274 28.2531C33.5865 26.6502 34.3258 24.8577 34.7047 22.9742C35.2927 23.4669 35.7371 24.1089 35.991 24.8327C36.245 25.5566 36.2991 26.3355 36.1477 27.0875Z" fill="#494D4B"/>
<path d="M34.2953 8.8297L32.0539 11.0711C30.6573 9.1825 28.836 7.64891 26.7371 6.59426C24.6383 5.53961 22.3208 4.99349 19.9719 5.00001C14.7617 5.01017 10.1422 7.74533 7.45703 11.832L5.18359 9.55861C6.82274 7.22937 8.98843 5.31984 11.5046 3.98526C14.0207 2.65069 16.8163 1.92875 19.6641 1.87814C19.7781 1.8758 19.8914 1.87501 20.0047 1.87501C22.7591 1.86884 25.4786 2.49223 27.9553 3.69756C30.4321 4.90289 32.6006 6.65829 34.2953 8.8297Z" fill="#8257E5"/>
<path d="M27.8464 22.1635L25.0145 36.251C24.8445 37.0967 25.3922 37.9201 26.2379 38.0901C27.0836 38.2601 27.907 37.7123 28.077 36.8667L30.9089 22.7792C31.0789 21.9335 30.5311 21.1101 29.6854 20.9401C28.8397 20.7701 28.0164 21.3178 27.8464 22.1635Z" fill="#04D361"/>
<path d="M34.9289 28.2555L33.9 33.3672C33.6766 34.4767 33.0216 35.4521 32.0791 36.0787C31.1366 36.7054 29.9838 36.9319 28.8742 36.7086L28.1562 36.5641L28.9 32.8711L30.8695 23.0844L31.5875 23.2289C32.6968 23.4531 33.672 24.108 34.2992 25.05C34.3856 25.1799 34.4646 25.3144 34.5359 25.4531C34.9817 26.3154 35.1203 27.3038 34.9289 28.2555Z" fill="#494D4B"/>
<path d="M34.9289 28.2555L33.9 33.3672C33.6766 34.4767 33.0216 35.4521 32.0791 36.0787C31.1366 36.7054 29.9838 36.9319 28.8742 36.7086L28.1562 36.5641L28.9 32.8711C31.0403 30.6086 32.9299 28.1215 34.5359 25.4531C34.9817 26.3154 35.1203 27.3038 34.9289 28.2555Z" fill="#494D4B"/>
</svg>
